<?xml version="1.0" encoding="UTF-8" standalone="no"?>
<!DOCTYPE svg PUBLIC "-//W3C//DTD SVG 1.1//EN"
 "http://www.w3.org/Graphics/SVG/1.1/DTD/svg11.dtd">
<!-- Generated by graphviz version 2.42.4 (0)
 -->
<!-- Title: G Pages: 1 -->
<svg width="807pt" height="1419pt"
 viewBox="0.00 0.00 806.70 1419.20" xmlns="http://www.w3.org/2000/svg" xmlns:xlink="http://www.w3.org/1999/xlink">
<g id="graph0" class="graph" transform="scale(1 1) rotate(0) translate(21.6 1397.6)">
<title>G</title>
<polygon fill="white" stroke="transparent" points="-21.6,21.6 -21.6,-1397.6 785.1,-1397.6 785.1,21.6 -21.6,21.6"/>
<!-- Start -->
<g id="node1" class="node">
<title>Start</title>
<path fill="#90ee90" stroke="#534ab7" d="M374.5,-1376C374.5,-1376 262.5,-1376 262.5,-1376 256.5,-1376 250.5,-1370 250.5,-1364 250.5,-1364 250.5,-1352 250.5,-1352 250.5,-1346 256.5,-1340 262.5,-1340 262.5,-1340 374.5,-1340 374.5,-1340 380.5,-1340 386.5,-1346 386.5,-1352 386.5,-1352 386.5,-1364 386.5,-1364 386.5,-1370 380.5,-1376 374.5,-1376"/>
<text text-anchor="middle" x="318.5" y="-1355.5" font-family="Arial" font-size="10.00" fill="#1a5c1a">1. afisare_rezolvare(a, b, c)</text>
</g>
<!-- Rezolva -->
<g id="node2" class="node">
<title>Rezolva</title>
<path fill="#e8e6fb" stroke="#534ab7" d="M353,-1299C353,-1299 284,-1299 284,-1299 278,-1299 272,-1293 272,-1287 272,-1287 272,-1275 272,-1275 272,-1269 278,-1263 284,-1263 284,-1263 353,-1263 353,-1263 359,-1263 365,-1269 365,-1275 365,-1275 365,-1287 365,-1287 365,-1293 359,-1299 353,-1299"/>
<text text-anchor="middle" x="318.5" y="-1278.5" font-family="Arial" font-size="10.00" fill="#26215c">2. rezolva(a, b, c)</text>
</g>
<!-- Start&#45;&gt;Rezolva -->
<g id="edge1" class="edge">
<title>Start&#45;&gt;Rezolva</title>
<path fill="none" stroke="#73726c" d="M318.5,-1339.98C318.5,-1330.94 318.5,-1319.6 318.5,-1309.35"/>
<polygon fill="#73726c" stroke="#73726c" points="322,-1309.21 318.5,-1299.21 315,-1309.21 322,-1309.21"/>
</g>
<!-- A -->
<g id="node3" class="node">
<title>A</title>
<path fill="#fff2cc" stroke="#534ab7" d="M307.11,-1218.22C307.11,-1218.22 275.66,-1207.78 275.66,-1207.78 269.97,-1205.89 269.97,-1202.11 275.66,-1200.22 275.66,-1200.22 307.11,-1189.78 307.11,-1189.78 312.81,-1187.89 324.19,-1187.89 329.89,-1189.78 329.89,-1189.78 361.34,-1200.22 361.34,-1200.22 367.03,-1202.11 367.03,-1205.89 361.34,-1207.78 361.34,-1207.78 329.89,-1218.22 329.89,-1218.22 324.19,-1220.11 312.81,-1220.11 307.11,-1218.22"/>
<text text-anchor="middle" x="318.5" y="-1201.5" font-family="Arial" font-size="10.00" fill="#6b4a00">3. a == 0 ?</text>
</g>
<!-- Rezolva&#45;&gt;A -->
<g id="edge2" class="edge">
<title>Rezolva&#45;&gt;A</title>
<path fill="none" stroke="#73726c" d="M318.5,-1262.98C318.5,-1253.94 318.5,-1242.6 318.5,-1232.35"/>
<polygon fill="#73726c" stroke="#73726c" points="322,-1232.21 318.5,-1222.21 315,-1232.21 322,-1232.21"/>
</g>
<!-- Liniara -->
<g id="node4" class="node">
<title>Liniara</title>
<path fill="#e8e6fb" stroke="#534ab7" d="M353,-1080C353,-1080 228,-1080 228,-1080 222,-1080 216,-1074 216,-1068 216,-1068 216,-1056 216,-1056 216,-1050 222,-1044 228,-1044 228,-1044 353,-1044 353,-1044 359,-1044 365,-1050 365,-1056 365,-1056 365,-1068 365,-1068 365,-1074 359,-1080 353,-1080"/>
<text text-anchor="middle" x="290.5" y="-1059.5" font-family="Arial" font-size="10.00" fill="#26215c">4. rezolva_ecuatie_liniara(b, c)</text>
</g>
<!-- A&#45;&gt;Liniara -->
<g id="edge3" class="edge">
<title>A&#45;&gt;Liniara</title>
<path fill="none" stroke="#73726c" d="M315.29,-1186.94C310.55,-1163.27 301.65,-1118.73 295.9,-1089.99"/>
<polygon fill="#73726c" stroke="#73726c" points="299.33,-1089.3 293.94,-1080.18 292.47,-1090.67 299.33,-1089.3"/>
<text text-anchor="middle" x="318" y="-1158.8" font-family="Arial" font-size="9.00" fill="#3d3d3a">DA</text>
</g>
<!-- Delta -->
<g id="node10" class="node">
<title>Delta</title>
<path fill="#e8e6fb" stroke="#534ab7" d="M446,-1136C446,-1136 357,-1136 357,-1136 351,-1136 345,-1130 345,-1124 345,-1124 345,-1112 345,-1112 345,-1106 351,-1100 357,-1100 357,-1100 446,-1100 446,-1100 452,-1100 458,-1106 458,-1112 458,-1112 458,-1124 458,-1124 458,-1130 452,-1136 446,-1136"/>
<text text-anchor="middle" x="401.5" y="-1115.5" font-family="Arial" font-size="10.00" fill="#26215c">10. delta = b*b &#45; 4*a*c</text>
</g>
<!-- A&#45;&gt;Delta -->
<g id="edge9" class="edge">
<title>A&#45;&gt;Delta</title>
<path fill="none" stroke="#73726c" d="M331.47,-1189.88C343.66,-1177.54 362.22,-1158.76 377.17,-1143.63"/>
<polygon fill="#73726c" stroke="#73726c" points="380.06,-1145.67 384.6,-1136.1 375.09,-1140.75 380.06,-1145.67"/>
<text text-anchor="middle" x="369.5" y="-1158.8" font-family="Arial" font-size="9.00" fill="#3d3d3a">NU</text>
</g>
<!-- C1 -->
<g id="node5" class="node">
<title>C1</title>
<path fill="#fff2cc" stroke="#534ab7" d="M245.69,-471.87C245.69,-471.87 169.51,-458.13 169.51,-458.13 163.61,-457.06 163.61,-454.94 169.51,-453.87 169.51,-453.87 245.69,-440.13 245.69,-440.13 251.6,-439.06 263.4,-439.06 269.31,-440.13 269.31,-440.13 345.49,-453.87 345.49,-453.87 351.39,-454.94 351.39,-457.06 345.49,-458.13 345.49,-458.13 269.31,-471.87 269.31,-471.87 263.4,-472.94 251.6,-472.94 245.69,-471.87"/>
<text text-anchor="middle" x="257.5" y="-453.5" font-family="Arial" font-size="10.00" fill="#6b4a00">5. b == 0 AND c == 0 ?</text>
</g>
<!-- Liniara&#45;&gt;C1 -->
<g id="edge4" class="edge">
<title>Liniara&#45;&gt;C1</title>
<path fill="none" stroke="#73726c" d="M288.51,-1043.86C286.44,-1024.49 283.5,-992.03 283.5,-964 283.5,-964 283.5,-964 283.5,-532 283.5,-514.53 277.13,-495.98 270.69,-481.69"/>
<polygon fill="#73726c" stroke="#73726c" points="273.79,-480.05 266.3,-472.55 267.47,-483.08 273.79,-480.05"/>
</g>
<!-- Inf -->
<g id="node6" class="node">
<title>Inf</title>
<path fill="#e8e6fb" stroke="#534ab7" d="M167,-332C167,-332 84,-332 84,-332 78,-332 72,-326 72,-320 72,-320 72,-308 72,-308 72,-302 78,-296 84,-296 84,-296 167,-296 167,-296 173,-296 179,-302 179,-308 179,-308 179,-320 179,-320 179,-326 173,-332 167,-332"/>
<text text-anchor="middle" x="125.5" y="-311.5" font-family="Arial" font-size="10.00" fill="#26215c">6. Infinitate de solutii</text>
</g>
<!-- C1&#45;&gt;Inf -->
<g id="edge5" class="edge">
<title>C1&#45;&gt;Inf</title>
<path fill="none" stroke="#73726c" d="M241.76,-440.8C227.27,-427.54 205.38,-406.98 187.5,-388 173.01,-372.62 157.63,-354.53 145.81,-340.2"/>
<polygon fill="#73726c" stroke="#73726c" points="148.35,-337.77 139.3,-332.25 142.93,-342.2 148.35,-337.77"/>
<text text-anchor="middle" x="224" y="-410.8" font-family="Arial" font-size="9.00" fill="#3d3d3a">DA</text>
</g>
<!-- C2 -->
<g id="node7" class="node">
<title>C2</title>
<path fill="#fff2cc" stroke="#534ab7" d="M246.11,-384.22C246.11,-384.22 214.66,-373.78 214.66,-373.78 208.97,-371.89 208.97,-368.11 214.66,-366.22 214.66,-366.22 246.11,-355.78 246.11,-355.78 251.81,-353.89 263.19,-353.89 268.89,-355.78 268.89,-355.78 300.34,-366.22 300.34,-366.22 306.03,-368.11 306.03,-371.89 300.34,-373.78 300.34,-373.78 268.89,-384.22 268.89,-384.22 263.19,-386.11 251.81,-386.11 246.11,-384.22"/>
<text text-anchor="middle" x="257.5" y="-367.5" font-family="Arial" font-size="10.00" fill="#6b4a00">7. b == 0 ?</text>
</g>
<!-- C1&#45;&gt;C2 -->
<g id="edge6" class="edge">
<title>C1&#45;&gt;C2</title>
<path fill="none" stroke="#73726c" d="M257.5,-437.6C257.5,-426.26 257.5,-411.23 257.5,-398.32"/>
<polygon fill="#73726c" stroke="#73726c" points="261,-398.1 257.5,-388.1 254,-398.1 261,-398.1"/>
<text text-anchor="middle" x="264.5" y="-410.8" font-family="Arial" font-size="9.00" fill="#3d3d3a">NU</text>
</g>
<!-- Final -->
<g id="node22" class="node">
<title>Final</title>
<path fill="#ffe699" stroke="#534ab7" d="M363.5,-199C363.5,-199 287.5,-199 287.5,-199 281.5,-199 275.5,-193 275.5,-187 275.5,-187 275.5,-175 275.5,-175 275.5,-169 281.5,-163 287.5,-163 287.5,-163 363.5,-163 363.5,-163 369.5,-163 375.5,-169 375.5,-175 375.5,-175 375.5,-187 375.5,-187 375.5,-193 369.5,-199 363.5,-199"/>
<text text-anchor="middle" x="325.5" y="-178.5" font-family="Arial" font-size="10.00" fill="#6b4a00">22. Verificare finala</text>
</g>
<!-- Inf&#45;&gt;Final -->
<g id="edge23" class="edge">
<title>Inf&#45;&gt;Final</title>
<path fill="none" stroke="#73726c" d="M127.55,-295.94C130.4,-279.49 137.08,-254.96 152.5,-240 182.75,-210.67 228.26,-196.16 265.01,-188.99"/>
<polygon fill="#73726c" stroke="#73726c" points="265.91,-192.38 275.12,-187.16 264.66,-185.5 265.91,-192.38"/>
</g>
<!-- NoSol -->
<g id="node8" class="node">
<title>NoSol</title>
<path fill="#e8e6fb" stroke="#534ab7" d="M238.5,-276C238.5,-276 180.5,-276 180.5,-276 174.5,-276 168.5,-270 168.5,-264 168.5,-264 168.5,-252 168.5,-252 168.5,-246 174.5,-240 180.5,-240 180.5,-240 238.5,-240 238.5,-240 244.5,-240 250.5,-246 250.5,-252 250.5,-252 250.5,-264 250.5,-264 250.5,-270 244.5,-276 238.5,-276"/>
<text text-anchor="middle" x="209.5" y="-255.5" font-family="Arial" font-size="10.00" fill="#26215c">8. Nicio solutie</text>
</g>
<!-- C2&#45;&gt;NoSol -->
<g id="edge7" class="edge">
<title>C2&#45;&gt;NoSol</title>
<path fill="none" stroke="#73726c" d="M250.83,-353.7C243.14,-336.09 230.38,-306.86 221.07,-285.52"/>
<polygon fill="#73726c" stroke="#73726c" points="224.27,-284.1 217.07,-276.34 217.86,-286.9 224.27,-284.1"/>
<text text-anchor="middle" x="248" y="-311.8" font-family="Arial" font-size="9.00" fill="#3d3d3a">DA</text>
</g>
<!-- LinSol -->
<g id="node9" class="node">
<title>LinSol</title>
<path fill="#e8e6fb" stroke="#534ab7" d="M356.5,-276C356.5,-276 294.5,-276 294.5,-276 288.5,-276 282.5,-270 282.5,-264 282.5,-264 282.5,-252 282.5,-252 282.5,-246 288.5,-240 294.5,-240 294.5,-240 356.5,-240 356.5,-240 362.5,-240 368.5,-246 368.5,-252 368.5,-252 368.5,-264 368.5,-264 368.5,-270 362.5,-276 356.5,-276"/>
<text text-anchor="middle" x="325.5" y="-255.5" font-family="Arial" font-size="10.00" fill="#26215c">9. Solutie: &#45;c / b</text>
</g>
<!-- C2&#45;&gt;LinSol -->
<g id="edge8" class="edge">
<title>C2&#45;&gt;LinSol</title>
<path fill="none" stroke="#73726c" d="M266.39,-354.62C277.29,-336.99 295.97,-306.78 309.41,-285.02"/>
<polygon fill="#73726c" stroke="#73726c" points="312.54,-286.63 314.82,-276.28 306.58,-282.95 312.54,-286.63"/>
<text text-anchor="middle" x="309.5" y="-311.8" font-family="Arial" font-size="9.00" fill="#3d3d3a">NU</text>
</g>
<!-- NoSol&#45;&gt;Final -->
<g id="edge24" class="edge">
<title>NoSol&#45;&gt;Final</title>
<path fill="none" stroke="#73726c" d="M235.82,-239.98C251.87,-229.6 272.6,-216.2 290.08,-204.9"/>
<polygon fill="#73726c" stroke="#73726c" points="292.38,-207.58 298.88,-199.21 288.58,-201.7 292.38,-207.58"/>
</g>
<!-- LinSol&#45;&gt;Final -->
<g id="edge25" class="edge">
<title>LinSol&#45;&gt;Final</title>
<path fill="none" stroke="#73726c" d="M325.5,-239.98C325.5,-230.94 325.5,-219.6 325.5,-209.35"/>
<polygon fill="#73726c" stroke="#73726c" points="329,-209.21 325.5,-199.21 322,-209.21 329,-209.21"/>
</g>
<!-- D0 -->
<g id="node11" class="node">
<title>D0</title>
<path fill="#fff2cc" stroke="#534ab7" d="M405.87,-1021.03C405.87,-1021.03 358.6,-1008.97 358.6,-1008.97 352.79,-1007.48 352.79,-1004.52 358.6,-1003.03 358.6,-1003.03 405.87,-990.97 405.87,-990.97 411.69,-989.48 423.31,-989.48 429.13,-990.97 429.13,-990.97 476.4,-1003.03 476.4,-1003.03 482.21,-1004.52 482.21,-1007.48 476.4,-1008.97 476.4,-1008.97 429.13,-1021.03 429.13,-1021.03 423.31,-1022.52 411.69,-1022.52 405.87,-1021.03"/>
<text text-anchor="middle" x="417.5" y="-1003.5" font-family="Arial" font-size="10.00" fill="#6b4a00">11. delta == 0 ?</text>
</g>
<!-- Delta&#45;&gt;D0 -->
<g id="edge10" class="edge">
<title>Delta&#45;&gt;D0</title>
<path fill="none" stroke="#73726c" d="M404,-1099.81C406.57,-1082.11 410.62,-1054.28 413.61,-1033.71"/>
<polygon fill="#73726c" stroke="#73726c" points="417.09,-1034.11 415.07,-1023.71 410.17,-1033.1 417.09,-1034.11"/>
</g>
<!-- OneSol -->
<g id="node12" class="node">
<title>OneSol</title>
<path fill="#e8e6fb" stroke="#534ab7" d="M457,-882C457,-882 378,-882 378,-882 372,-882 366,-876 366,-870 366,-870 366,-858 366,-858 366,-852 372,-846 378,-846 378,-846 457,-846 457,-846 463,-846 469,-852 469,-858 469,-858 469,-870 469,-870 469,-876 463,-882 457,-882"/>
<text text-anchor="middle" x="417.5" y="-861.5" font-family="Arial" font-size="10.00" fill="#26215c">12. Solutie: &#45;b / (2a)</text>
</g>
<!-- D0&#45;&gt;OneSol -->
<g id="edge11" class="edge">
<title>D0&#45;&gt;OneSol</title>
<path fill="none" stroke="#73726c" d="M417.5,-987.83C417.5,-964.01 417.5,-920.66 417.5,-892.35"/>
<polygon fill="#73726c" stroke="#73726c" points="421,-892.31 417.5,-882.31 414,-892.31 421,-892.31"/>
<text text-anchor="middle" x="424" y="-960.8" font-family="Arial" font-size="9.00" fill="#3d3d3a">DA</text>
</g>
<!-- Loop -->
<g id="node13" class="node">
<title>Loop</title>
<path fill="#b4e0ff" stroke="#534ab7" d="M587.5,-938C587.5,-938 519.5,-938 519.5,-938 513.5,-938 507.5,-932 507.5,-926 507.5,-926 507.5,-914 507.5,-914 507.5,-908 513.5,-902 519.5,-902 519.5,-902 587.5,-902 587.5,-902 593.5,-902 599.5,-908 599.5,-914 599.5,-914 599.5,-926 599.5,-926 599.5,-932 593.5,-938 587.5,-938"/>
<text text-anchor="middle" x="553.5" y="-923" font-family="Arial" font-size="10.00" fill="#0a3d6b">13. Bucla for</text>
<text text-anchor="middle" x="553.5" y="-912" font-family="Arial" font-size="10.00" fill="#0a3d6b">indice_semn = &#45;1</text>
</g>
<!-- D0&#45;&gt;Loop -->
<g id="edge12" class="edge">
<title>D0&#45;&gt;Loop</title>
<path fill="none" stroke="#73726c" d="M436.99,-992.96C457.81,-980.1 491.31,-959.41 517.05,-943.51"/>
<polygon fill="#73726c" stroke="#73726c" points="519.13,-946.34 525.8,-938.11 515.46,-940.38 519.13,-946.34"/>
<text text-anchor="middle" x="496.5" y="-960.8" font-family="Arial" font-size="9.00" fill="#3d3d3a">NU</text>
</g>
<!-- OneSol&#45;&gt;Final -->
<g id="edge26" class="edge">
<title>OneSol&#45;&gt;Final</title>
<path fill="none" stroke="#73726c" d="M417.5,-845.83C417.5,-826.44 417.5,-793.95 417.5,-766 417.5,-766 417.5,-766 417.5,-257 417.5,-233.47 399.2,-216.01 378.92,-203.88"/>
<polygon fill="#73726c" stroke="#73726c" points="380.59,-200.81 370.15,-199.01 377.19,-206.93 380.59,-200.81"/>
</g>
<!-- DPos -->
<g id="node14" class="node">
<title>DPos</title>
<path fill="#fff2cc" stroke="#534ab7" d="M541.91,-822.87C541.91,-822.87 498.39,-811.13 498.39,-811.13 492.59,-809.56 492.59,-806.44 498.39,-804.87 498.39,-804.87 541.91,-793.13 541.91,-793.13 547.71,-791.56 559.29,-791.56 565.09,-793.13 565.09,-793.13 608.61,-804.87 608.61,-804.87 614.41,-806.44 614.41,-809.56 608.61,-811.13 608.61,-811.13 565.09,-822.87 565.09,-822.87 559.29,-824.44 547.71,-824.44 541.91,-822.87"/>
<text text-anchor="middle" x="553.5" y="-805.5" font-family="Arial" font-size="10.00" fill="#6b4a00">14. delta &gt; 0 ?</text>
</g>
<!-- Loop&#45;&gt;DPos -->
<g id="edge13" class="edge">
<title>Loop&#45;&gt;DPos</title>
<path fill="none" stroke="#73726c" d="M553.5,-901.81C553.5,-884.21 553.5,-856.61 553.5,-836.07"/>
<polygon fill="#73726c" stroke="#73726c" points="557,-836.07 553.5,-826.07 550,-836.07 557,-836.07"/>
</g>
<!-- Real -->
<g id="node15" class="node">
<title>Real</title>
<path fill="#e8e6fb" stroke="#534ab7" d="M533,-684C533,-684 454,-684 454,-684 448,-684 442,-678 442,-672 442,-672 442,-660 442,-660 442,-654 448,-648 454,-648 454,-648 533,-648 533,-648 539,-648 545,-654 545,-660 545,-660 545,-672 545,-672 545,-678 539,-684 533,-684"/>
<text text-anchor="middle" x="493.5" y="-669" font-family="Arial" font-size="10.00" fill="#26215c">15. Solutii reale</text>
<text text-anchor="middle" x="493.5" y="-658" font-family="Arial" font-size="10.00" fill="#26215c">(&#45;b +/&#45; radical) / (2a)</text>
</g>
<!-- DPos&#45;&gt;Real -->
<g id="edge14" class="edge">
<title>DPos&#45;&gt;Real</title>
<path fill="none" stroke="#73726c" d="M546.96,-791.75C536.91,-768.3 517.51,-723.03 505.05,-693.96"/>
<polygon fill="#73726c" stroke="#73726c" points="508.12,-692.23 500.96,-684.41 501.69,-694.98 508.12,-692.23"/>
<text text-anchor="middle" x="543" y="-762.8" font-family="Arial" font-size="9.00" fill="#3d3d3a">DA</text>
</g>
<!-- Comp -->
<g id="node16" class="node">
<title>Comp</title>
<path fill="#e8e6fb" stroke="#534ab7" d="M645,-740C645,-740 564,-740 564,-740 558,-740 552,-734 552,-728 552,-728 552,-716 552,-716 552,-710 558,-704 564,-704 564,-704 645,-704 645,-704 651,-704 657,-710 657,-716 657,-716 657,-728 657,-728 657,-734 651,-740 645,-740"/>
<text text-anchor="middle" x="604.5" y="-725" font-family="Arial" font-size="10.00" fill="#26215c">16. Solutii complexe</text>
<text text-anchor="middle" x="604.5" y="-714" font-family="Arial" font-size="10.00" fill="#26215c">&#45;b/(2a) +/&#45; i*radical</text>
</g>
<!-- DPos&#45;&gt;Comp -->
<g id="edge15" class="edge">
<title>DPos&#45;&gt;Comp</title>
<path fill="none" stroke="#73726c" d="M562.38,-792.37C569.64,-780.42 580.08,-763.22 588.75,-748.95"/>
<polygon fill="#73726c" stroke="#73726c" points="591.94,-750.43 594.14,-740.07 585.96,-746.8 591.94,-750.43"/>
<text text-anchor="middle" x="587.5" y="-762.8" font-family="Arial" font-size="9.00" fill="#3d3d3a">NU</text>
</g>
<!-- Add -->
<g id="node17" class="node">
<title>Add</title>
<path fill="#e8e6fb" stroke="#534ab7" d="M613,-551C613,-551 540,-551 540,-551 534,-551 528,-545 528,-539 528,-539 528,-527 528,-527 528,-521 534,-515 540,-515 540,-515 613,-515 613,-515 619,-515 625,-521 625,-527 625,-527 625,-539 625,-539 625,-545 619,-551 613,-551"/>
<text text-anchor="middle" x="576.5" y="-530.5" font-family="Arial" font-size="10.00" fill="#26215c">17. Adauga in lista</text>
</g>
<!-- Real&#45;&gt;Add -->
<g id="edge16" class="edge">
<title>Real&#45;&gt;Add</title>
<path fill="none" stroke="#73726c" d="M496.42,-647.76C499.6,-632.29 505.74,-609.4 516.5,-592 524.35,-579.31 535.59,-567.44 546.23,-557.79"/>
<polygon fill="#73726c" stroke="#73726c" points="548.58,-560.38 553.81,-551.17 543.98,-555.11 548.58,-560.38"/>
</g>
<!-- Form -->
<g id="node18" class="node">
<title>Form</title>
<path fill="#d8b4ff" stroke="#534ab7" d="M674.5,-628C674.5,-628 544.5,-628 544.5,-628 538.5,-628 532.5,-622 532.5,-616 532.5,-616 532.5,-604 532.5,-604 532.5,-598 538.5,-592 544.5,-592 544.5,-592 674.5,-592 674.5,-592 680.5,-592 686.5,-598 686.5,-604 686.5,-604 686.5,-616 686.5,-616 686.5,-622 680.5,-628 674.5,-628"/>
<text text-anchor="middle" x="609.5" y="-607.5" font-family="Arial" font-size="10.00" fill="#3d0a6b">18. formeaza_numar_complex()</text>
</g>
<!-- Comp&#45;&gt;Form -->
<g id="edge17" class="edge">
<title>Comp&#45;&gt;Form</title>
<path fill="none" stroke="#73726c" d="M605.28,-703.81C606.08,-686.21 607.34,-658.61 608.27,-638.07"/>
<polygon fill="#73726c" stroke="#73726c" points="611.77,-638.22 608.72,-628.07 604.77,-637.9 611.77,-638.22"/>
</g>
<!-- Next -->
<g id="node19" class="node">
<title>Next</title>
<path fill="#e8e6fb" stroke="#534ab7" d="M620,-474C620,-474 533,-474 533,-474 527,-474 521,-468 521,-462 521,-462 521,-450 521,-450 521,-444 527,-438 533,-438 533,-438 620,-438 620,-438 626,-438 632,-444 632,-450 632,-450 632,-462 632,-462 632,-468 626,-474 620,-474"/>
<text text-anchor="middle" x="576.5" y="-453.5" font-family="Arial" font-size="10.00" fill="#26215c">19. indice_semn += 2</text>
</g>
<!-- Add&#45;&gt;Next -->
<g id="edge19" class="edge">
<title>Add&#45;&gt;Next</title>
<path fill="none" stroke="#73726c" d="M576.5,-514.98C576.5,-505.94 576.5,-494.6 576.5,-484.35"/>
<polygon fill="#73726c" stroke="#73726c" points="580,-484.21 576.5,-474.21 573,-484.21 580,-484.21"/>
</g>
<!-- Form&#45;&gt;Add -->
<g id="edge18" class="edge">
<title>Form&#45;&gt;Add</title>
<path fill="none" stroke="#73726c" d="M602.01,-591.98C597.91,-582.65 592.73,-570.88 588.11,-560.38"/>
<polygon fill="#73726c" stroke="#73726c" points="591.3,-558.95 584.07,-551.21 584.9,-561.77 591.3,-558.95"/>
</g>
<!-- LoopEnd -->
<g id="node20" class="node">
<title>LoopEnd</title>
<path fill="#fff2cc" stroke="#534ab7" d="M564.69,-385.86C564.69,-385.86 489.17,-372.14 489.17,-372.14 483.27,-371.07 483.27,-368.93 489.17,-367.86 489.17,-367.86 564.69,-354.14 564.69,-354.14 570.6,-353.07 582.4,-353.07 588.31,-354.14 588.31,-354.14 663.83,-367.86 663.83,-367.86 669.73,-368.93 669.73,-371.07 663.83,-372.14 663.83,-372.14 588.31,-385.86 588.31,-385.86 582.4,-386.93 570.6,-386.93 564.69,-385.86"/>
<text text-anchor="middle" x="576.5" y="-367.5" font-family="Arial" font-size="10.00" fill="#6b4a00">20. indice_semn &lt;= 1 ?</text>
</g>
<!-- Next&#45;&gt;LoopEnd -->
<g id="edge20" class="edge">
<title>Next&#45;&gt;LoopEnd</title>
<path fill="none" stroke="#73726c" d="M576.5,-437.6C576.5,-426.26 576.5,-411.23 576.5,-398.32"/>
<polygon fill="#73726c" stroke="#73726c" points="580,-398.1 576.5,-388.1 573,-398.1 580,-398.1"/>
</g>
<!-- LoopEnd&#45;&gt;Loop -->
<g id="edge21" class="edge">
<title>LoopEnd&#45;&gt;Loop</title>
<path fill="none" stroke="#73726c" d="M641.29,-376.4C690.76,-384.49 750.5,-404.68 750.5,-455 750.5,-809 750.5,-809 750.5,-809 750.5,-873.85 668.11,-900.83 609.89,-911.8"/>
<polygon fill="#73726c" stroke="#73726c" points="608.92,-908.41 599.69,-913.6 610.14,-915.31 608.92,-908.41"/>
<text text-anchor="middle" x="757" y="-607.8" font-family="Arial" font-size="9.00" fill="#3d3d3a">DA</text>
</g>
<!-- TwoSol -->
<g id="node21" class="node">
<title>TwoSol</title>
<path fill="#e8e6fb" stroke="#534ab7" d="M565,-276C565,-276 522,-276 522,-276 516,-276 510,-270 510,-264 510,-264 510,-252 510,-252 510,-246 516,-240 522,-240 522,-240 565,-240 565,-240 571,-240 577,-246 577,-252 577,-252 577,-264 577,-264 577,-270 571,-276 565,-276"/>
<text text-anchor="middle" x="543.5" y="-255.5" font-family="Arial" font-size="10.00" fill="#26215c">21. 2 solutii</text>
</g>
<!-- LoopEnd&#45;&gt;TwoSol -->
<g id="edge22" class="edge">
<title>LoopEnd&#45;&gt;TwoSol</title>
<path fill="none" stroke="#73726c" d="M571.63,-352.77C566.33,-335.1 557.77,-306.58 551.49,-285.62"/>
<polygon fill="#73726c" stroke="#73726c" points="554.83,-284.59 548.61,-276.02 548.13,-286.61 554.83,-284.59"/>
<text text-anchor="middle" x="571.5" y="-311.8" font-family="Arial" font-size="9.00" fill="#3d3d3a">NU</text>
</g>
<!-- TwoSol&#45;&gt;Final -->
<g id="edge27" class="edge">
<title>TwoSol&#45;&gt;Final</title>
<path fill="none" stroke="#73726c" d="M510,-243.88C490.41,-236.34 465.16,-226.84 442.5,-219 423.98,-212.59 403.67,-206.02 385.24,-200.21"/>
<polygon fill="#73726c" stroke="#73726c" points="386.1,-196.82 375.51,-197.17 384.01,-203.5 386.1,-196.82"/>
</g>
<!-- Msg1 -->
<g id="node23" class="node">
<title>Msg1</title>
<path fill="#e8e6fb" stroke="#534ab7" d="M95,-113C95,-113 12,-113 12,-113 6,-113 0,-107 0,-101 0,-101 0,-89 0,-89 0,-83 6,-77 12,-77 12,-77 95,-77 95,-77 101,-77 107,-83 107,-89 107,-89 107,-101 107,-101 107,-107 101,-113 95,-113"/>
<text text-anchor="middle" x="53.5" y="-92.5" font-family="Arial" font-size="10.00" fill="#26215c">23. Nu exista solutii.</text>
</g>
<!-- Final&#45;&gt;Msg1 -->
<g id="edge28" class="edge">
<title>Final&#45;&gt;Msg1</title>
<path fill="none" stroke="#73726c" d="M275.29,-164.5C230.63,-150.7 165.11,-130.47 116.85,-115.56"/>
<polygon fill="#73726c" stroke="#73726c" points="117.72,-112.17 107.14,-112.56 115.66,-118.86 117.72,-112.17"/>
<text text-anchor="middle" x="221.5" y="-135.8" font-family="Arial" font-size="9.00" fill="#3d3d3a">Fara solutii</text>
</g>
<!-- Msg2 -->
<g id="node24" class="node">
<title>Msg2</title>
<path fill="#e8e6fb" stroke="#534ab7" d="M322,-113C322,-113 151,-113 151,-113 145,-113 139,-107 139,-101 139,-101 139,-89 139,-89 139,-83 145,-77 151,-77 151,-77 322,-77 322,-77 328,-77 334,-83 334,-89 334,-89 334,-101 334,-101 334,-107 328,-113 322,-113"/>
<text text-anchor="middle" x="236.5" y="-92.5" font-family="Arial" font-size="10.00" fill="#26215c">24. Solutia poate fi orice numar complex.</text>
</g>
<!-- Final&#45;&gt;Msg2 -->
<g id="edge29" class="edge">
<title>Final&#45;&gt;Msg2</title>
<path fill="none" stroke="#73726c" d="M307.06,-162.6C294.09,-150.35 276.55,-133.8 262.2,-120.26"/>
<polygon fill="#73726c" stroke="#73726c" points="264.29,-117.41 254.61,-113.1 259.48,-122.5 264.29,-117.41"/>
<text text-anchor="middle" x="302" y="-135.8" font-family="Arial" font-size="9.00" fill="#3d3d3a">Infinitate</text>
</g>
<!-- Msg3 -->
<g id="node25" class="node">
<title>Msg3</title>
<path fill="#e8e6fb" stroke="#534ab7" d="M453,-113C453,-113 378,-113 378,-113 372,-113 366,-107 366,-101 366,-101 366,-89 366,-89 366,-83 372,-77 378,-77 378,-77 453,-77 453,-77 459,-77 465,-83 465,-89 465,-89 465,-101 465,-101 465,-107 459,-113 453,-113"/>
<text text-anchor="middle" x="415.5" y="-92.5" font-family="Arial" font-size="10.00" fill="#26215c">25. Solutia este: x.</text>
</g>
<!-- Final&#45;&gt;Msg3 -->
<g id="edge30" class="edge">
<title>Final&#45;&gt;Msg3</title>
<path fill="none" stroke="#73726c" d="M344.15,-162.6C357.27,-150.35 375,-133.8 389.51,-120.26"/>
<polygon fill="#73726c" stroke="#73726c" points="392.26,-122.48 397.18,-113.1 387.49,-117.36 392.26,-122.48"/>
<text text-anchor="middle" x="392" y="-135.8" font-family="Arial" font-size="9.00" fill="#3d3d3a">O solutie</text>
</g>
<!-- Msg4 -->
<g id="node26" class="node">
<title>Msg4</title>
<path fill="#e8e6fb" stroke="#534ab7" d="M618,-113C618,-113 509,-113 509,-113 503,-113 497,-107 497,-101 497,-101 497,-89 497,-89 497,-83 503,-77 509,-77 509,-77 618,-77 618,-77 624,-77 630,-83 630,-89 630,-89 630,-101 630,-101 630,-107 624,-113 618,-113"/>
<text text-anchor="middle" x="563.5" y="-92.5" font-family="Arial" font-size="10.00" fill="#26215c">26. Solutiile sunt: x1 si x2.</text>
</g>
<!-- Final&#45;&gt;Msg4 -->
<g id="edge31" class="edge">
<title>Final&#45;&gt;Msg4</title>
<path fill="none" stroke="#73726c" d="M373.95,-162.9C412.08,-149.44 465.32,-130.65 505.68,-116.41"/>
<polygon fill="#73726c" stroke="#73726c" points="506.85,-119.7 515.12,-113.08 504.52,-113.1 506.85,-119.7"/>
<text text-anchor="middle" x="476" y="-135.8" font-family="Arial" font-size="9.00" fill="#3d3d3a">Doua solutii</text>
</g>
<!-- Stop -->
<g id="node27" class="node">
<title>Stop</title>
<path fill="#ff9999" stroke="#534ab7" d="M305.5,-36C305.5,-36 275.5,-36 275.5,-36 269.5,-36 263.5,-30 263.5,-24 263.5,-24 263.5,-12 263.5,-12 263.5,-6 269.5,0 275.5,0 275.5,0 305.5,0 305.5,0 311.5,0 317.5,-6 317.5,-12 317.5,-12 317.5,-24 317.5,-24 317.5,-30 311.5,-36 305.5,-36"/>
<text text-anchor="middle" x="290.5" y="-15.5" font-family="Arial" font-size="10.00" fill="#7a1a1a">27. End</text>
</g>
<!-- Msg1&#45;&gt;Stop -->
<g id="edge32" class="edge">
<title>Msg1&#45;&gt;Stop</title>
<path fill="none" stroke="#73726c" d="M107.28,-76.98C152.01,-62.83 214.48,-43.06 253.69,-30.65"/>
<polygon fill="#73726c" stroke="#73726c" points="254.9,-33.94 263.38,-27.58 252.79,-27.26 254.9,-33.94"/>
</g>
<!-- Msg2&#45;&gt;Stop -->
<g id="edge33" class="edge">
<title>Msg2&#45;&gt;Stop</title>
<path fill="none" stroke="#73726c" d="M248.75,-76.98C255.68,-67.36 264.47,-55.16 272.2,-44.42"/>
<polygon fill="#73726c" stroke="#73726c" points="275.11,-46.37 278.11,-36.21 269.42,-42.28 275.11,-46.37"/>
</g>
<!-- Msg3&#45;&gt;Stop -->
<g id="edge34" class="edge">
<title>Msg3&#45;&gt;Stop</title>
<path fill="none" stroke="#73726c" d="M387.14,-76.98C369.23,-66.24 345.92,-52.25 326.69,-40.71"/>
<polygon fill="#73726c" stroke="#73726c" points="328.27,-37.58 317.89,-35.44 324.67,-43.58 328.27,-37.58"/>
</g>
<!-- Msg4&#45;&gt;Stop -->
<g id="edge35" class="edge">
<title>Msg4&#45;&gt;Stop</title>
<path fill="none" stroke="#73726c" d="M501.55,-76.98C447.99,-62.27 372.33,-41.48 327.65,-29.21"/>
<polygon fill="#73726c" stroke="#73726c" points="328.37,-25.77 317.8,-26.5 326.52,-32.52 328.37,-25.77"/>
</g>
</g>
</svg>
